<svg xmlns="http://www.w3.org/2000/svg" width="800" height="500" viewBox="0 0 800 500">
  <rect width="800" height="500" fill="#060b18" rx="8"/>
  <rect x="0" y="0" width="180" height="500" fill="#080e1c"/>
  <rect x="170" y="0" width="1" height="500" fill="#1a2540"/>
  <text x="20" y="32" font-family="sans-serif" font-size="14" font-weight="bold" fill="#e8ecf4">⚡ ShieldView</text>
  <rect x="12" y="50" width="156" height="28" fill="#182040" rx="6"/>
  <text x="24" y="69" font-family="sans-serif" font-size="12" fill="#8899bb">📊 Dashboard</text>
  <text x="24" y="93" font-family="sans-serif" font-size="12" fill="#e8ecf4">🏛️ Executive</text>
  <text x="24" y="117" font-family="sans-serif" font-size="12" fill="#e8ecf4">🔍 CVE Detail</text>
  <text x="24" y="141" font-family="sans-serif" font-size="12" fill="#e8ecf4">🛠️ Solutions</text>
  <text x="24" y="165" font-family="sans-serif" font-size="12" fill="#e8ecf4">✅ Recently Fixed</text>
  <text x="24" y="189" font-family="sans-serif" font-size="12" fill="#e8ecf4">🖥️ Assets</text>
  <text x="24" y="213" font-family="sans-serif" font-size="12" fill="#e8ecf4">👥 Teams</text>
  <rect x="180" y="0" width="620" height="56" fill="#0c1225"/>
  <text x="200" y="34" font-family="sans-serif" font-size="16" font-weight="600" fill="#e8ecf4">Dashboard</text>
  <text x="600" y="34" font-family="sans-serif" font-size="11" fill="#556888">Last sync: 2026-07-08</text>
  <rect x="740" y="14" width="28" height="28" fill="#1a2540" rx="14"/>
  <text x="748" y="33" font-family="sans-serif" font-size="14" fill="#e8ecf4">🌓</text>
  <!-- Stats cards grid -->
  <rect x="196" y="72" width="88" height="56" fill="#111830" rx="8" stroke="#1a2540" stroke-width="1"/>
  <text x="220" y="94" font-family="sans-serif" font-size="18" font-weight="bold" fill="#0066ff" text-anchor="middle">44</text>
  <text x="220" y="114" font-family="sans-serif" font-size="9" fill="#556888" text-anchor="middle">Active Findings</text>
  <rect x="294" y="72" width="88" height="56" fill="#111830" rx="8" stroke="#1a2540" stroke-width="1"/>
  <text x="318" y="94" font-family="sans-serif" font-size="18" font-weight="bold" fill="#ff4444" text-anchor="middle">10</text>
  <text x="318" y="114" font-family="sans-serif" font-size="9" fill="#556888" text-anchor="middle">Critical</text>
  <rect x="392" y="72" width="88" height="56" fill="#111830" rx="8" stroke="#1a2540" stroke-width="1"/>
  <text x="416" y="94" font-family="sans-serif" font-size="18" font-weight="bold" fill="#ff7722" text-anchor="middle">24</text>
  <text x="416" y="114" font-family="sans-serif" font-size="9" fill="#556888" text-anchor="middle">High</text>
  <rect x="490" y="72" width="88" height="56" fill="#111830" rx="8" stroke="#1a2540" stroke-width="1"/>
  <text x="514" y="94" font-family="sans-serif" font-size="18" font-weight="bold" fill="#e6b800" text-anchor="middle">10</text>
  <text x="514" y="114" font-family="sans-serif" font-size="9" fill="#556888" text-anchor="middle">Medium</text>
  <rect x="588" y="72" width="88" height="56" fill="#111830" rx="8" stroke="#1a2540" stroke-width="1"/>
  <text x="612" y="94" font-family="sans-serif" font-size="18" font-weight="bold" fill="#22cc66" text-anchor="middle">0</text>
  <text x="612" y="114" font-family="sans-serif" font-size="9" fill="#556888" text-anchor="middle">Low</text>
  <rect x="686" y="72" width="100" height="56" fill="#111830" rx="8" stroke="#1a2540" stroke-width="1"/>
  <text x="716" y="94" font-family="sans-serif" font-size="18" font-weight="bold" fill="#e6b800" text-anchor="middle">15</text>
  <text x="716" y="114" font-family="sans-serif" font-size="9" fill="#556888" text-anchor="middle">Aged >90 Days</text>
  <!-- Severity chart -->
  <rect x="196" y="140" width="290" height="120" fill="#111830" rx="8" stroke="#1a2540" stroke-width="1"/>
  <text x="210" y="162" font-family="sans-serif" font-size="13" font-weight="600" fill="#e8ecf4">Severity Distribution</text>
  <rect x="220" y="200" width="40" height="50" fill="#ff4444" rx="4"/>
  <text x="226" y="195" font-family="sans-serif" font-size="10" fill="#ff4444">10</text>
  <rect x="280" y="175" width="40" height="75" fill="#ff7722" rx="4"/>
  <text x="286" y="170" font-family="sans-serif" font-size="10" fill="#ff7722">24</text>
  <rect x="340" y="190" width="40" height="60" fill="#e6b800" rx="4"/>
  <text x="346" y="185" font-family="sans-serif" font-size="10" fill="#e6b800">10</text>
  <rect x="400" y="245" width="40" height="5" fill="#22cc66" rx="4"/>
  <!-- KEV section -->
  <rect x="500" y="140" width="286" height="120" fill="#111830" rx="8" stroke="#1a2540" stroke-width="1"/>
  <text x="514" y="162" font-family="sans-serif" font-size="13" font-weight="600" fill="#e8ecf4">Known Exploited Vulnerabilities</text>
  <text x="514" y="186" font-family="sans-serif" font-size="11" fill="#ff4444">Critical: 12</text>
  <text x="514" y="204" font-family="sans-serif" font-size="11" fill="#ff7722">High: 31</text>
  <text x="514" y="222" font-family="sans-serif" font-size="11" fill="#e6b800">Medium: 5</text>
  <!-- Findings table -->
  <rect x="196" y="272" width="590" height="200" fill="#111830" rx="8" stroke="#1a2540" stroke-width="1"/>
  <text x="210" y="294" font-family="sans-serif" font-size="13" font-weight="600" fill="#e8ecf4">Findings</text>
  <rect x="210" y="302" width="140" height="24" fill="#0c1225" rx="6"/>
  <text x="218" y="318" font-family="sans-serif" font-size="11" fill="#8899bb">Search CVE or asset...</text>
  <rect x="360" y="302" width="80" height="24" fill="#0c1225" rx="6"/>
  <text x="370" y="318" font-family="sans-serif" font-size="11" fill="#8899bb">All Severities</text>
  <rect x="448" y="302" width="60" height="24" fill="#0c1225" rx="6"/>
  <text x="458" y="318" font-family="sans-serif" font-size="11" fill="#8899bb">All Tags</text>
  <rect x="516" y="302" width="70" height="24" fill="#0c1225" rx="6"/>
  <text x="526" y="318" font-family="sans-serif" font-size="11" fill="#8899bb">All Locations</text>
  <text x="210" y="340" font-family="sans-serif" font-size="10" fill="#556888" font-weight="bold">CVE</text>
  <text x="330" y="340" font-family="sans-serif" font-size="10" fill="#556888" font-weight="bold">CHECK / PLUGIN</text>
  <text x="500" y="340" font-family="sans-serif" font-size="10" fill="#556888" font-weight="bold">ASSET</text>
  <text x="580" y="340" font-family="sans-serif" font-size="10" fill="#556888" font-weight="bold">SEV</text>
  <text x="640" y="340" font-family="sans-serif" font-size="10" fill="#556888" font-weight="bold">KEV</text>
  <rect x="210" y="344" width="560" height="1" fill="#1a2540"/>
  <text x="210" y="362" font-family="sans-serif" font-size="11" fill="#8899bb">CVE-2026-12345</text>
  <text x="330" y="362" font-family="sans-serif" font-size="10" fill="#e8ecf4">Log Library RCE...</text>
  <text x="500" y="362" font-family="sans-serif" font-size="11" fill="#e8ecf4">WEB-PROD-03</text>
  <text x="580" y="362" font-family="sans-serif" font-size="10" fill="#ff4444">Critical</text>
  <text x="650" y="362" font-family="sans-serif" font-size="10" fill="#ff4444">⚠</text>
  <rect x="210" y="368" width="560" height="1" fill="#1a2540" opacity="0.3"/>
  <text x="210" y="386" font-family="sans-serif" font-size="11" fill="#8899bb">CVE-2026-11223</text>
  <text x="330" y="386" font-family="sans-serif" font-size="10" fill="#e8ecf4">Print Service EoP...</text>
  <text x="500" y="386" font-family="sans-serif" font-size="11" fill="#e8ecf4">DC-PROD-01</text>
  <text x="580" y="386" font-family="sans-serif" font-size="10" fill="#ff7722">High</text>
  <text x="650" y="386" font-family="sans-serif" font-size="10" fill="#ff4444">⚠</text>
</svg>
